<svg width="40" height="40" viewBox="0 0 40 40" fill="none" xmlns="http://www.w3.org/2000/svg">
<path fill-rule="evenodd" clip-rule="evenodd" d="M26.6666 15C26.6666 16.7681 25.9642 18.4638 24.714 19.714C23.4637 20.9643 21.768 21.6667 19.9999 21.6667C18.2318 21.6667 16.5361 20.9643 15.2859 19.714C14.0356 18.4638 13.3333 16.7681 13.3333 15C13.3333 13.2319 14.0356 11.5362 15.2859 10.2859C16.5361 9.03571 18.2318 8.33333 19.9999 8.33333C21.768 8.33333 23.4637 9.03571 24.714 10.2859C25.9642 11.5362 26.6666 13.2319 26.6666 15ZM23.3333 15C23.3333 15.884 22.9821 16.7319 22.3569 17.357C21.7318 17.9821 20.884 18.3333 19.9999 18.3333C19.1159 18.3333 18.268 17.9821 17.6429 17.357C17.0178 16.7319 16.6666 15.884 16.6666 15C16.6666 14.1159 17.0178 13.2681 17.6429 12.643C18.268 12.0179 19.1159 11.6667 19.9999 11.6667C20.884 11.6667 21.7318 12.0179 22.3569 12.643C22.9821 13.2681 23.3333 14.1159 23.3333 15Z" fill="white"/>
<path fill-rule="evenodd" clip-rule="evenodd" d="M20 1.66666C9.87496 1.66666 1.66663 9.875 1.66663 20C1.66663 30.125 9.87496 38.3333 20 38.3333C30.125 38.3333 38.3333 30.125 38.3333 20C38.3333 9.875 30.125 1.66666 20 1.66666ZM4.99996 20C4.99996 23.4833 6.18829 26.69 8.17996 29.2367C9.57903 27.4002 11.3835 25.9119 13.4527 24.8879C15.5218 23.8639 17.7996 23.3318 20.1083 23.3333C22.3873 23.3307 24.6367 23.8485 26.6852 24.8473C28.7336 25.8461 30.5269 27.2995 31.9283 29.0967C33.3724 27.2027 34.3447 24.992 34.7648 22.6476C35.1849 20.3033 35.0407 17.8926 34.3441 15.615C33.6476 13.3374 32.4187 11.2584 30.7591 9.55006C29.0995 7.84171 27.057 6.5531 24.8006 5.79085C22.5441 5.02859 20.1386 4.81462 17.7831 5.16662C15.4275 5.51862 13.1896 6.42648 11.2546 7.81509C9.31954 9.20369 7.74298 11.0331 6.65534 13.152C5.56771 15.2709 5.00026 17.6183 4.99996 20ZM20 35C16.5565 35.0056 13.2169 33.8209 10.5466 31.6467C11.6213 30.1077 13.0519 28.8512 14.7168 27.9841C16.3816 27.117 18.2312 26.665 20.1083 26.6667C21.9619 26.665 23.7892 27.1058 25.4383 27.9522C27.0874 28.7986 28.5107 30.0263 29.59 31.5333C26.8991 33.7783 23.5044 35.0055 20 35Z" fill="white"/>
</svg>
