<svg width="246" height="56" viewBox="0 0 246 56" fill="none" xmlns="http://www.w3.org/2000/svg">
<path d="M51.6335 17.3771V11.5455H79.1094V17.3771H68.8672V45H61.8757V17.3771H51.6335ZM80.8981 45V19.9091H87.6445V24.2869H87.9059C88.3633 22.7296 89.131 21.5535 90.2092 20.7585C91.2873 19.9527 92.5288 19.5497 93.9336 19.5497C94.2821 19.5497 94.6578 19.5715 95.0607 19.6151C95.4637 19.6586 95.8176 19.7185 96.1225 19.7947V25.9695C95.7958 25.8714 95.3439 25.7843 94.7667 25.7081C94.1895 25.6319 93.6613 25.5938 93.1822 25.5938C92.1585 25.5938 91.2437 25.817 90.4379 26.2635C89.6429 26.6991 89.0112 27.3089 88.543 28.093C88.0856 28.8771 87.8569 29.781 87.8569 30.8047V45H80.8981ZM106.156 45.4737C104.556 45.4737 103.129 45.196 101.877 44.6406C100.624 44.0743 99.6332 43.2412 98.9036 42.1413C98.1848 41.0305 97.8255 39.6475 97.8255 37.9922C97.8255 36.5982 98.0814 35.4276 98.5932 34.4801C99.1051 33.5327 99.802 32.7704 100.684 32.1932C101.566 31.616 102.568 31.1804 103.69 30.8864C104.822 30.5923 106.009 30.3854 107.251 30.2656C108.71 30.1132 109.886 29.9716 110.779 29.8409C111.672 29.6993 112.32 29.4924 112.723 29.2202C113.126 28.9479 113.328 28.545 113.328 28.0114V27.9134C113.328 26.8788 113.001 26.0784 112.347 25.5121C111.705 24.9458 110.79 24.6626 109.603 24.6626C108.351 24.6626 107.354 24.9403 106.614 25.4957C105.873 26.0402 105.383 26.7263 105.144 27.554L98.7076 27.0312C99.0343 25.5066 99.6768 24.1889 100.635 23.0781C101.593 21.9564 102.829 21.0961 104.343 20.4972C105.868 19.8873 107.632 19.5824 109.636 19.5824C111.03 19.5824 112.364 19.7457 113.638 20.0724C114.923 20.3991 116.061 20.9055 117.052 21.5916C118.054 22.2777 118.843 23.1598 119.421 24.2379C119.998 25.3052 120.286 26.5848 120.286 28.0767V45H113.687V41.5206H113.491C113.088 42.3047 112.549 42.9962 111.874 43.5952C111.199 44.1832 110.387 44.6461 109.44 44.9837C108.492 45.3104 107.398 45.4737 106.156 45.4737ZM108.149 40.6712C109.173 40.6712 110.077 40.4697 110.861 40.0668C111.645 39.6529 112.26 39.0975 112.707 38.4006C113.153 37.7036 113.377 36.9141 113.377 36.032V33.3693C113.159 33.5109 112.859 33.6416 112.478 33.7614C112.108 33.8703 111.689 33.9737 111.22 34.0717C110.752 34.1589 110.284 34.2405 109.816 34.3168C109.347 34.3821 108.923 34.442 108.541 34.4964C107.725 34.6162 107.011 34.8068 106.401 35.0682C105.792 35.3295 105.318 35.6835 104.98 36.13C104.643 36.5656 104.474 37.1101 104.474 37.7635C104.474 38.7109 104.817 39.4351 105.503 39.9361C106.2 40.4261 107.082 40.6712 108.149 40.6712ZM148.179 19.9091L139.407 45H131.566L122.794 19.9091H130.145L135.356 37.8615H135.617L140.812 19.9091H148.179ZM162.366 45.4901C159.785 45.4901 157.563 44.9673 155.701 43.9219C153.85 42.8655 152.423 41.3736 151.421 39.446C150.419 37.5076 149.919 35.2152 149.919 32.5689C149.919 29.9879 150.419 27.7228 151.421 25.7734C152.423 23.8241 153.834 22.3049 155.652 21.2159C157.482 20.1269 159.627 19.5824 162.088 19.5824C163.744 19.5824 165.285 19.8492 166.711 20.3828C168.149 20.9055 169.401 21.6951 170.468 22.7514C171.546 23.8078 172.385 25.1364 172.984 26.7372C173.583 28.3272 173.882 30.1894 173.882 32.3239V34.2351H152.695V29.9226H167.332C167.332 28.9207 167.114 28.0331 166.678 27.2599C166.243 26.4867 165.638 25.8823 164.865 25.4467C164.103 25.0002 163.215 24.777 162.203 24.777C161.146 24.777 160.21 25.022 159.393 25.5121C158.587 25.9912 157.955 26.6392 157.498 27.456C157.041 28.2618 156.807 29.1603 156.796 30.1513V34.2514C156.796 35.4929 157.024 36.5656 157.482 37.4695C157.95 38.3733 158.609 39.0703 159.458 39.5604C160.308 40.0504 161.315 40.2955 162.48 40.2955C163.253 40.2955 163.961 40.1866 164.604 39.9688C165.246 39.7509 165.796 39.4242 166.254 38.9886C166.711 38.553 167.06 38.0194 167.299 37.3878L173.735 37.8125C173.409 39.3589 172.739 40.7093 171.726 41.8636C170.724 43.0071 169.428 43.9001 167.838 44.5426C166.259 45.1742 164.435 45.4901 162.366 45.4901ZM185.382 11.5455V45H178.423V11.5455H185.382ZM202.293 45.4901C199.756 45.4901 197.562 44.951 195.71 43.8729C193.87 42.7839 192.449 41.2701 191.447 39.3317C190.445 37.3823 189.944 35.1226 189.944 32.5526C189.944 29.9607 190.445 27.6955 191.447 25.7571C192.449 23.8078 193.87 22.294 195.71 21.2159C197.562 20.1269 199.756 19.5824 202.293 19.5824C204.831 19.5824 207.02 20.1269 208.86 21.2159C210.711 22.294 212.138 23.8078 213.14 25.7571C214.142 27.6955 214.643 29.9607 214.643 32.5526C214.643 35.1226 214.142 37.3823 213.14 39.3317C212.138 41.2701 210.711 42.7839 208.86 43.8729C207.02 44.951 204.831 45.4901 202.293 45.4901ZM202.326 40.0994C203.48 40.0994 204.444 39.7727 205.217 39.1193C205.991 38.455 206.573 37.5511 206.965 36.4077C207.368 35.2642 207.57 33.9628 207.57 32.5036C207.57 31.0443 207.368 29.7429 206.965 28.5994C206.573 27.456 205.991 26.5521 205.217 25.8878C204.444 25.2235 203.48 24.8913 202.326 24.8913C201.161 24.8913 200.181 25.2235 199.386 25.8878C198.602 26.5521 198.008 27.456 197.605 28.5994C197.213 29.7429 197.017 31.0443 197.017 32.5036C197.017 33.9628 197.213 35.2642 197.605 36.4077C198.008 37.5511 198.602 38.455 199.386 39.1193C200.181 39.7727 201.161 40.0994 202.326 40.0994ZM230.472 54.9318C228.217 54.9318 226.284 54.6214 224.673 54.0007C223.072 53.3909 221.798 52.5578 220.85 51.5014C219.903 50.4451 219.287 49.258 219.004 47.9403L225.44 47.0746C225.636 47.5755 225.947 48.0438 226.371 48.4794C226.796 48.915 227.357 49.2635 228.054 49.5249C228.762 49.7971 229.622 49.9332 230.635 49.9332C232.149 49.9332 233.396 49.563 234.376 48.8224C235.367 48.0928 235.862 46.8677 235.862 45.147V40.5568H235.568C235.263 41.2538 234.806 41.9126 234.196 42.5334C233.586 43.1541 232.802 43.6605 231.844 44.0526C230.885 44.4446 229.742 44.6406 228.413 44.6406C226.529 44.6406 224.814 44.205 223.268 43.3338C221.732 42.4517 220.507 41.1068 219.592 39.299C218.688 37.4804 218.237 35.1825 218.237 32.4055C218.237 29.5632 218.699 27.1892 219.625 25.2834C220.551 23.3776 221.781 21.951 223.317 21.0036C224.863 20.0561 226.557 19.5824 228.397 19.5824C229.802 19.5824 230.978 19.822 231.925 20.3011C232.873 20.7694 233.635 21.3575 234.212 22.0653C234.8 22.7623 235.252 23.4484 235.568 24.1236H235.83V19.9091H242.739V45.245C242.739 47.3795 242.217 49.1655 241.171 50.603C240.126 52.0405 238.677 53.1186 236.826 53.8374C234.986 54.567 232.867 54.9318 230.472 54.9318ZM230.619 39.4134C231.74 39.4134 232.688 39.1357 233.461 38.5803C234.245 38.014 234.844 37.2081 235.258 36.1626C235.683 35.1063 235.895 33.843 235.895 32.3729C235.895 30.9027 235.688 29.6286 235.274 28.5504C234.86 27.4614 234.261 26.6174 233.477 26.0185C232.693 25.4195 231.74 25.12 230.619 25.12C229.475 25.12 228.511 25.4304 227.727 26.0511C226.943 26.661 226.35 27.5104 225.947 28.5994C225.544 29.6884 225.342 30.9463 225.342 32.3729C225.342 33.8213 225.544 35.0736 225.947 36.13C226.361 37.1754 226.954 37.9867 227.727 38.5639C228.511 39.1302 229.475 39.4134 230.619 39.4134Z" fill="white"/>
<circle cx="20" cy="28" r="20" fill="white"/>
<path d="M8.25 29.3538L12.565 31.2425L25 24.4588L17.5 33.2088L28.25 38.1038C28.4339 38.1843 28.6344 38.2193 28.8346 38.206C29.0349 38.1926 29.229 38.1312 29.4005 38.027C29.5721 37.9228 29.716 37.7788 29.8201 37.6072C29.9242 37.4357 29.9855 37.2415 29.9988 37.0413L31.2488 18.2913C31.2627 18.0742 31.2199 17.8573 31.1245 17.6619C31.0292 17.4664 30.8846 17.2992 30.7049 17.1766C30.5253 17.054 30.3169 16.9803 30.1001 16.9627C29.8834 16.9451 29.6658 16.9842 29.4688 17.0763L8.21875 27.0763C8.00199 27.1791 7.81933 27.342 7.69248 27.5457C7.56564 27.7493 7.49996 27.9851 7.50325 28.225C7.50655 28.4649 7.57867 28.6988 7.71105 28.8989C7.84343 29.099 8.0305 29.2569 8.25 29.3538ZM15 40.7088L20.97 37.8138L15 35.0288V40.7088Z" fill="#7C9B8C"/>
</svg>
